<svg viewBox="0 0 64 64" xmlns="http://www.w3.org/2000/svg"><path d="m13.1 30.2v6.8c0 14 37.7 14 37.7 0v-6.8z" fill="#596066"/><path d="m62 25.4-30 13.5-30-13.5 30-13.5z" fill="#3e4347"/><g fill="#ffce31"><path d="m31.9 24.8c-4.6 2.1-14.6 6.6-15 6.8-.2.1-.4.3-.4.6v6.8c0 .8 1 .8 1 0v-6.3c4.5-2 14.2-6.4 14.6-6.6.6-.3.4-1.5-.2-1.3"/><ellipse cx="17" cy="38.9" rx="1.9" ry="2.4"/><path d="m17 51.9c1 0 1.9-.5 1.9-1.2v-11.8h-3.8v11.8c0 .7.9 1.2 1.9 1.2"/></g><path d="m18.3 39.2c-.1 0-.1.1-.2.1v12.4c.1 0 .1-.1.2-.1zm-.8.3h-.2v12.4h.2zm-.8 0h-.2v12.4h.2zm-.8-.2c-.1 0-.1-.1-.2-.1v12.5c.1 0 .1.1.2.1z" fill="#594640"/></svg>